<svg width="18" height="21" viewBox="0 0 18 21" fill="none" xmlns="http://www.w3.org/2000/svg">
<path d="M8.87997 5.0675V6.81072" stroke="black" stroke-width="2.30128" stroke-miterlimit="10"/>
<path d="M16.4185 1H1.34136C1.25082 1 1.164 1.03596 1.09998 1.09998C1.03596 1.164 1 1.25082 1 1.34136V19.3143C1 19.4049 1.03596 19.4917 1.09998 19.5557C1.164 19.6197 1.25082 19.6557 1.34136 19.6557H16.4185C16.5091 19.6557 16.5959 19.6197 16.6599 19.5557C16.7239 19.4917 16.7599 19.4049 16.7599 19.3143V1.34136C16.7599 1.25082 16.7239 1.164 16.6599 1.09998C16.5959 1.03596 16.5091 1 16.4185 1ZM13.3233 15.2468C13.3233 15.3367 13.2879 15.4229 13.2247 15.4868C13.1615 15.5507 13.0757 15.5872 12.9858 15.5882H4.77793C4.7331 15.5882 4.68871 15.5793 4.6473 15.5622C4.60588 15.545 4.56825 15.5199 4.53655 15.4882C4.50485 15.4565 4.47971 15.4189 4.46256 15.3774C4.4454 15.336 4.43657 15.2916 4.43657 15.2468V5.40886C4.43657 5.31833 4.47254 5.2315 4.53655 5.16749C4.60057 5.10347 4.68739 5.0675 4.77793 5.0675H12.9858C13.0763 5.0675 13.1632 5.10347 13.2272 5.16749C13.2912 5.2315 13.3272 5.31833 13.3272 5.40886L13.3233 15.2468Z" fill="black" stroke="black" stroke-width="1.34241" stroke-miterlimit="10"/>
</svg>
