<svg width="21" height="22" viewBox="0 0 21 22" fill="none" xmlns="http://www.w3.org/2000/svg">
<path d="M20.0368 19.1578L17.8491 7.31894C17.7836 6.96067 17.5944 6.63678 17.3144 6.4038C17.0345 6.17081 16.6816 6.04354 16.3174 6.04418H13.0606C13.4103 5.57451 13.6225 5.01686 13.6736 4.43352C13.7246 3.85019 13.6125 3.26414 13.3497 2.74085C13.0869 2.21756 12.6838 1.77764 12.1855 1.47022C11.6871 1.1628 11.113 1 10.5275 1C9.94191 1 9.36788 1.1628 8.8695 1.47022C8.37112 1.77764 7.96802 2.21756 7.70524 2.74085C7.44245 3.26414 7.33033 3.85019 7.38139 4.43352C7.43246 5.01686 7.6447 5.57451 7.99441 6.04418H4.80339C4.44135 6.04405 4.09062 6.17031 3.81172 6.40116C3.53283 6.63201 3.34326 6.95297 3.27574 7.30866L1.02846 19.1495C0.984769 19.3747 0.991453 19.6068 1.04803 19.829C1.10461 20.0513 1.20968 20.2583 1.3557 20.4352C1.50172 20.6121 1.68508 20.7544 1.89263 20.8521C2.10017 20.9497 2.32675 21.0003 2.55611 21H18.5071C18.7358 21.0003 18.9617 20.9502 19.1688 20.8531C19.3759 20.7561 19.559 20.6146 19.7051 20.4386C19.8512 20.2627 19.9567 20.0566 20.014 19.8352C20.0714 19.6138 20.0791 19.3825 20.0368 19.1578ZM10.5316 5.81185C10.175 5.81185 9.82633 5.70609 9.5298 5.50796C9.23327 5.30982 9.00216 5.02821 8.86568 4.69872C8.7292 4.36923 8.69349 4.00668 8.76307 3.6569C8.83265 3.30712 9.00438 2.98582 9.25656 2.73364C9.50874 2.48147 9.83003 2.30973 10.1798 2.24016C10.5296 2.17058 10.8921 2.20629 11.2216 2.34277C11.5511 2.47924 11.8327 2.71036 12.0309 3.00689C12.229 3.30342 12.3348 3.65204 12.3348 4.00868C12.3348 4.48691 12.1448 4.94555 11.8066 5.28371C11.4685 5.62187 11.0098 5.81185 10.5316 5.81185Z" fill="black" stroke="black" stroke-width="1.43925" stroke-miterlimit="10"/>
<path d="M10.2791 9.78681L7.37759 12.9252L7.25916 12.9351L5.57154 14.751L5.47285 13.5963L8.98626 9.78681H10.2791ZM5.99592 9.78681V16.3004H4.93992V9.78681H5.99592ZM7.59471 12.1159L10.3383 16.3004H9.09482L6.75584 12.7081L7.59471 12.1159ZM13.7916 16.3991C13.1797 16.3991 12.6501 16.2642 12.2027 15.9945C11.7553 15.7247 11.4066 15.3431 11.1565 14.8497C10.9065 14.3496 10.7815 13.7476 10.7815 13.0436C10.7815 12.3528 10.9098 11.7573 11.1664 11.2573C11.4296 10.7573 11.798 10.3724 12.2717 10.1026C12.752 9.82628 13.3014 9.68812 13.9199 9.68812C14.5976 9.68812 15.1437 9.81313 15.5582 10.0631C15.9792 10.3132 16.3148 10.7013 16.5648 11.2277L15.5878 11.6915C15.4628 11.3297 15.2555 11.0599 14.966 10.8823C14.6831 10.6981 14.3377 10.6059 13.9298 10.6059C13.5218 10.6059 13.1633 10.7013 12.854 10.8921C12.5514 11.083 12.3145 11.3626 12.1434 11.731C11.9724 12.0929 11.8869 12.5304 11.8869 13.0436C11.8869 13.5634 11.9625 14.0075 12.1138 14.3759C12.2652 14.7378 12.4922 15.0141 12.7948 15.205C13.104 15.3958 13.4824 15.4912 13.9298 15.4912C14.1732 15.4912 14.4002 15.4615 14.6107 15.4023C14.8213 15.3365 15.0055 15.2444 15.1634 15.126C15.3213 15.001 15.443 14.8464 15.5286 14.6621C15.6207 14.4713 15.6667 14.2476 15.6667 13.9911V13.8035H13.7719V12.9449H16.6043V16.3004H15.8148L15.7555 14.9878L15.9529 15.0865C15.795 15.501 15.5318 15.8234 15.1634 16.0537C14.8015 16.284 14.3443 16.3991 13.7916 16.3991Z" fill="white"/>
</svg>
