<svg width="20" height="20" viewBox="0 0 20 20" fill="none" xmlns="http://www.w3.org/2000/svg">
<path d="M10 0C4.48002 0 0 4.48002 0 10C0 15.52 4.48002 20 10 20C15.52 20 20 15.52 20 10C20 4.48002 15.52 0 10 0ZM10.1722 2.92028L10.2076 6.50463C10.2153 7.28437 9.80215 8.00757 9.12616 8.39627C8.45017 8.78496 7.61664 8.77853 6.94662 8.37963L3.87515 6.55092L4.0285 6.3028C5.30909 4.22579 7.56444 2.94945 10.0043 2.92173L10.1722 2.92028ZM16.1306 6.37876L16.2688 6.63556C17.4273 8.7831 17.4047 11.3743 16.2088 13.5012L16.1263 13.648L13.0049 11.8866C12.3258 11.5034 11.9062 10.7834 11.9075 10.0036C11.9089 9.22384 12.331 8.50508 13.0114 8.12428L16.1306 6.37876ZM8.07436 11.4453C8.4509 11.4438 8.82791 11.5406 9.16522 11.7361C9.83984 12.1272 10.2513 12.8517 10.2409 13.6314L10.1931 17.2056L9.90162 17.1976C7.46257 17.1271 5.22979 15.8115 3.98583 13.7123L3.89974 13.5677L6.98641 11.7447C7.32212 11.5465 7.69782 11.4468 8.07436 11.4453Z" fill="black"/>
</svg>
