<svg width="20" height="20" viewBox="0 0 20 20" fill="none" xmlns="http://www.w3.org/2000/svg">
<path fill-rule="evenodd" clip-rule="evenodd" d="M10 20C15.5229 20 20 15.5229 20 10C20 4.47714 15.5229 0 10 0C4.47714 0 0 4.47714 0 10C0 15.5229 4.47714 20 10 20ZM10.5284 13.7696V14.952H9.56842V13.7673C9.22028 13.7378 8.89627 13.6767 8.59644 13.584C8.16443 13.44 7.78442 13.248 7.45642 13.008C7.13641 12.768 6.87244 12.492 6.66443 12.18L7.51642 11.316C7.68442 11.596 7.89642 11.844 8.15244 12.06C8.40842 12.268 8.70441 12.432 9.04044 12.552C9.20844 12.612 9.38443 12.657 9.56842 12.687V10.3322L9.05243 10.212C8.58841 10.108 8.20441 9.96399 7.90042 9.78C7.60443 9.59598 7.38443 9.37198 7.24042 9.108C7.09644 8.836 7.02441 8.53998 7.02441 8.22C7.02441 7.78 7.14041 7.38397 7.37244 7.03198C7.61243 6.67999 7.95642 6.39999 8.40442 6.19199C8.7406 6.02988 9.1286 5.92862 9.56842 5.88815V4.728H10.5284V5.89297C11.003 5.94162 11.431 6.06131 11.8124 6.25198C12.3244 6.508 12.7484 6.892 13.0844 7.40399L12.2684 8.19598C11.9724 7.73999 11.6364 7.41199 11.2604 7.21198C11.041 7.09525 10.797 7.01257 10.5284 6.96399V9.34753L11.0684 9.46799C11.8124 9.63599 12.3404 9.884 12.6524 10.212C12.9644 10.54 13.1204 10.96 13.1204 11.472C13.1204 11.944 12.9924 12.356 12.7364 12.708C12.4804 13.052 12.1244 13.32 11.6684 13.512C11.3302 13.6484 10.9502 13.7343 10.5284 13.7696ZM10.5284 10.5557V12.715C10.894 12.6806 11.1939 12.5943 11.4284 12.456C11.7484 12.264 11.9084 11.98 11.9084 11.604C11.9084 11.388 11.8284 11.196 11.6684 11.028C11.5084 10.852 11.2204 10.716 10.8044 10.62L10.5284 10.5557ZM9.56842 6.92798C9.33701 6.95062 9.13699 6.99728 8.96841 7.06799C8.72842 7.164 8.54843 7.29999 8.42844 7.47598C8.30841 7.64398 8.24841 7.832 8.24841 8.03998C8.24841 8.20798 8.28043 8.35999 8.34442 8.496C8.41641 8.63199 8.54443 8.75198 8.72842 8.85599C8.91241 8.95999 9.17242 9.04797 9.50842 9.12L9.56842 9.13339V6.92798Z" fill="black"/>
</svg>
